<svg xmlns="http://www.w3.org/2000/svg" viewBox="0 0 200 153.52">
  <defs>
    <style>.cls-1{fill:#20232c;}</style>
  </defs>
  <title>Ativo 1</title>
  <g id="Camada_2" data-name="Camada 2">
    <g id="Capa_1" data-name="Capa 1">
      <path class="cls-1"
            d="M152.92,53a53.08,53.08,0,0,1,24.54,6c-4-20.64-11.33-37.77-15.65-44.92C155,2.74,129.77-4.73,121.58,3.46s-31.43,7.37-31.43,7.37-23.24.82-31.42-7.37S25.35,2.75,18.49,14.11-2.8,62,.48,97.85,20.54,122.21,34.26,111,52.48,89.86,90.15,89.86c4.4,0,8.32.14,11.88.39A53.51,53.51,0,0,1,152.92,53Z"/>
      <path class="cls-1"
            d="M178.82,67.14A47.07,47.07,0,1,0,200,106.45,46.82,46.82,0,0,0,178.82,67.14Zm3.63,46.71a2.11,2.11,0,0,1-2.11,2.11h-15.8a2.11,2.11,0,0,0-2.11,2.11v15.79a2.1,2.1,0,0,1-2.11,2.11h-14.8a2.11,2.11,0,0,1-2.11-2.11v-15.8A2.11,2.11,0,0,0,141.3,116H125.51a2.1,2.1,0,0,1-2.11-2.11V99.05a2.1,2.1,0,0,1,2.11-2.11H141.3a2.11,2.11,0,0,0,2.11-2.11V79a2.11,2.11,0,0,1,2.11-2.11h14.8A2.1,2.1,0,0,1,162.43,79v15.8a2.12,2.12,0,0,0,2.11,2.11h15.8a2.1,2.1,0,0,1,2.11,2.11v14.8Z"/>
    </g>
  </g>
</svg>