<?xml version="1.0" encoding="utf-8"?>
<!-- Generator: Adobe Illustrator 23.0.0, SVG Export Plug-In . SVG Version: 6.00 Build 0)  -->
<svg version="1.1" id="Capa_1" xmlns="http://www.w3.org/2000/svg" xmlns:xlink="http://www.w3.org/1999/xlink" x="0px" y="0px"
	 viewBox="0 0 568.8 568.8" style="enable-background:new 0 0 568.8 568.8;" xml:space="preserve">
<g>
	<g>
		<path d="M18.8,343.2h177.4v16.5h-44.8c-5.1,0-9.2,4.1-9.2,9.2s4.1,9.2,9.2,9.2h266.2c5.1,0,9.2-4.1,9.2-9.2s-4.1-9.2-9.2-9.2
			h-44.8v-16.5h76.6c-0.1,5.1-0.2,10.3-0.3,15.4c-0.1,5.1,3.8,10.9,9,11.8c13.3,2.4,30.4,20.9,38.5,30.7
			c-16.5,5.3-28.6,52.2-28.6,71.6c0,23.7,17.9,36.7,40,36.7c22.1,0,40-13.1,40-36.7c0-15.9-5.8-60-30-67.9
			c-11-20.8-28.6-50.9-44.2-55.8c0-2,0.1-4,0.1-5.9H550c10.4,0,18.8-8.4,18.8-18.8V46.3c0-10.4-8.4-18.8-18.8-18.8H18.8
			C8.4,27.6,0,36,0,46.3v278.1C0,334.8,8.4,343.2,18.8,343.2z M27.1,69.7c0-8.6,7.6-15.6,17-15.6h480.7c9.4,0,17,7,17,15.6v231.3
			c0,8.6-7.6,15.6-17,15.6H44c-9.4,0-17-7-17-15.6V69.7z"/>
		<path d="M441.6,515.6l-18.4-89.8c0-10.1-8.2-18.4-18.4-18.4H60.1c-10.1,0-18.4,8.2-18.4,18.4l-12.2,89.8
			c0,10.1,8.2,18.4,18.4,18.4h375.4C433.4,534,441.6,525.8,441.6,515.6z"/>
		<g>
			<path d="M181.2,254.7l-8.2-23.4h-52l-8.4,23.4H84.7l44.2-118.5h39.3l44.2,118.5H181.2z M147.3,157.9L127.7,213h39L147.3,157.9z"
				/>
			<path d="M335.2,193.9c0,9.2-1.4,17.5-4.3,25c-2.9,7.5-7.3,13.9-13.4,19.2c-6,5.3-13.8,9.4-23.2,12.2c-9.4,2.9-20.7,4.3-33.9,4.3
				h-37.9V136.1h44.2c11.4,0,21.4,1.1,30,3.4c8.6,2.3,15.7,5.8,21.4,10.5c5.7,4.7,10,10.7,12.8,18
				C333.8,175.2,335.2,183.9,335.2,193.9z M305.1,195.3c0-6.4-0.6-12.1-1.9-17.1c-1.3-5-3.5-9.3-6.6-12.7c-3.1-3.5-7.2-6.1-12.4-7.9
				c-5.2-1.8-11.6-2.7-19.3-2.7h-14.3V236H263c13.8,0,24.2-3.3,31.4-9.8C301.5,219.7,305.1,209.4,305.1,195.3z"/>
			<path d="M439.8,254.7l-2.7-67l-1-26.8l-7.2,18.1l-16.5,40.4h-17.6l-15-40.4l-6.3-18.1l-0.8,26.2l-2.5,67.6h-23.9l7.3-118.5h31.7
				l13.1,33.6l6.3,19l6.3-17.9l13.8-34.7h32.3l7.4,118.5H439.8z"/>
		</g>
	</g>
</g>
</svg>
