<?xml version="1.0" encoding="iso-8859-1"?>
<!-- Generator: Adobe Illustrator 16.0.0, SVG Export Plug-In . SVG Version: 6.00 Build 0)  -->
<!DOCTYPE svg PUBLIC "-//W3C//DTD SVG 1.1//EN" "http://www.w3.org/Graphics/SVG/1.1/DTD/svg11.dtd">
<svg version="1.1" id="Capa_1" xmlns="http://www.w3.org/2000/svg" xmlns:xlink="http://www.w3.org/1999/xlink" x="0px" y="0px"
	 width="569.493px" height="569.493px" viewBox="0 0 569.493 569.493" style="enable-background:new 0 0 569.493 569.493;"
	 xml:space="preserve">
<g>
	<g>
		<path d="M18.751,376.296h177.37v16.45h-44.835c-5.067,0-9.18,4.106-9.18,9.18c0,5.074,4.112,9.181,9.18,9.181h165.008
			c0.624-3.085,1.334-6.145,2.136-9.181c0.813-3.09,1.714-6.15,2.687-9.18c1.806-5.618,3.855-11.12,6.102-16.45
			c1.561-3.697,3.226-7.277,4.939-10.796c2.674-5.508,5.495-10.771,8.402-15.766H44.021c-9.37,0-16.964-6.982-16.964-15.594v-231.33
			c0-8.611,7.595-15.594,16.964-15.594h480.745c9.369,0,16.965,6.983,16.965,15.594v229.965
			c11.321,5.44,21.971,15.019,27.031,25.013c0-0.086,0.024-0.159,0.024-0.245V79.402c0-10.355-8.396-18.752-18.751-18.752H18.751
			C8.396,60.65,0,69.047,0,79.402v278.142C0,367.898,8.396,376.296,18.751,376.296z"/>
		<path d="M333.883,376.296c-2.319,5.312-4.443,10.808-6.316,16.45c-1.01,3.023-1.939,6.083-2.784,9.18
			c-0.826,3.029-1.566,6.09-2.216,9.181c-0.146,0.697-0.336,1.377-0.471,2.074c-5.674,29.046,1.671,37.437,13.28,37.437
			c7.625,0,17.093-3.623,25.912-7.381c14.565-6.212,23.733-13.128,42.148-13.128c9.719,0,22.014,1.928,39.039,6.897
			c49.291,14.395,51.427,28.979,65.068,48.948c7.662,11.218,16.566,22.889,26.083,22.889c7.43,0,15.239-7.118,23.121-27.124
			c17.234-43.733,13.428-94.45,9.003-113.991c-0.189-0.845-0.379-1.726-0.575-2.448c-2.595-9.798-13.188-20.165-24.431-26.083
			c-5.753-3.029-11.671-4.908-16.787-4.908c-2.729,0-5.227,0.526-7.351,1.688c-3.819,2.094-8.88,2.853-14.198,2.853
			c-13.96,0-29.737-5.215-29.737-5.215s-30.716-7.809-38.299-21.652c-3.886-7.093-15.184-10.514-27.062-10.514
			c-11.31,0-23.146,3.097-29.64,9.069c-6.817,6.267-18.751,20.447-30.037,39.224c-2.98,4.95-5.894,10.232-8.672,15.765
			C337.193,369.001,335.498,372.599,333.883,376.296z M523.621,423.462c1.579-5.403,7.233-8.5,12.638-6.921
			s8.501,7.233,6.922,12.638c-1.579,5.403-7.234,8.5-12.632,6.922C525.145,434.515,522.048,428.86,523.621,423.462z
			 M489.771,437.073c1.579-5.397,7.233-8.501,12.632-6.922c5.403,1.579,8.5,7.234,6.921,12.638
			c-1.578,5.398-7.233,8.501-12.631,6.922C491.295,448.132,488.192,442.471,489.771,437.073z M374.061,365.47l2.448-8.379
			c0.594-2.025,2.711-3.188,4.736-2.595l14.235,4.155l2.607-8.923l1.554-5.312c0.594-2.025,2.712-3.188,4.737-2.595l8.385,2.448
			c2.025,0.594,3.188,2.711,2.595,4.737l-0.208,0.722l-3.947,13.513l14.234,4.156c2.026,0.593,3.188,2.711,2.596,4.736l-1.212,4.155
			l-1.236,4.224c-0.594,2.025-2.711,3.188-4.737,2.595l-14.235-4.156l-4.026,13.789l-0.129,0.446
			c-0.594,2.026-2.711,3.188-4.736,2.595l-8.379-2.447c-0.428-0.123-0.789-0.35-1.132-0.594c-1.279-0.918-1.934-2.546-1.463-4.144
			l3.593-12.308l0.562-1.928l-14.234-4.155C374.63,369.618,373.467,367.495,374.061,365.47z"/>
		<path d="M359.409,135.266c-4.076,7.068-9.095,13.507-14.927,19.137c6.591,16.879,10.637,36.842,11.433,58.525H397.8
			C395.713,182.004,381.318,154.519,359.409,135.266z"/>
		<path d="M255.277,110.792c-13.164,3.482-25.398,9.198-36.236,16.83c2.925,5.374,6.554,10.294,10.667,14.768
			C236.617,128.846,245.314,118.007,255.277,110.792z"/>
		<path d="M170.986,212.928h41.886c0.795-21.689,4.841-41.653,11.432-58.525c-5.833-5.63-10.851-12.069-14.927-19.137
			C187.474,154.519,173.08,182.004,170.986,212.928z"/>
		<path d="M340.755,295.598c-7.154,15.128-16.462,27.185-27.239,34.994c13.959-3.69,26.836-9.939,38.151-18.257
			C348.772,306.209,345.082,300.609,340.755,295.598z"/>
		<path d="M278.276,113.619c-15.349,2.993-29.149,17.105-38.887,37.613c10.985,8.391,24.333,13.801,38.887,14.994V113.619z"/>
		<path d="M290.517,113.619v52.607c14.553-1.193,27.9-6.604,38.886-14.994C319.666,130.718,305.865,116.605,290.517,113.619z"/>
		<path d="M207.48,304.386c4.07-7.864,9.26-15.049,15.435-21.279c-6.065-16.903-9.682-36.61-10.134-57.932h-41.959
			C172.045,256.509,185.889,284.532,207.48,304.386z"/>
		<path d="M228.049,295.622c-4.339,5.043-7.98,10.679-10.857,16.756c11.298,8.293,24.156,14.523,38.085,18.207
			C244.506,322.788,235.204,310.738,228.049,295.622z"/>
		<path d="M361.337,304.361c21.573-19.848,35.41-47.865,36.628-79.193h-41.958c-0.453,21.34-4.076,41.053-10.147,57.968
			C352.017,289.324,357.249,296.454,361.337,304.361z"/>
		<path d="M290.517,212.928h53.164c-0.759-18.207-4.131-35.3-9.449-50.043c-12.54,8.862-27.51,14.443-43.715,15.582V212.928z"/>
		<path d="M278.276,225.168h-53.263c0.429,17.742,3.335,34.504,8.14,49.186c12.822-9.455,28.299-15.453,45.123-16.634V225.168
			L278.276,225.168z"/>
		<path d="M339.085,142.383c4.112-4.474,7.741-9.394,10.667-14.768c-10.839-7.625-23.072-13.348-36.236-16.83
			C323.473,118.007,332.175,128.846,339.085,142.383z"/>
		<path d="M290.517,257.653c16.572,1.181,32.148,7.142,45.129,16.677c4.798-14.676,7.698-31.432,8.127-49.162h-53.256V257.653z"/>
		<path d="M278.276,178.466c-16.206-1.138-31.175-6.72-43.715-15.582c-5.318,14.75-8.69,31.843-9.449,50.043h53.165V178.466z"/>
		<path d="M290.517,327.764c16.304-3.176,30.845-18.904,40.63-41.512c-11.438-9.241-25.544-15.086-40.63-16.334V327.764z"/>
		<path d="M278.276,327.764v-57.803c-15.318,1.254-29.339,7.142-40.631,16.297C247.438,308.865,261.973,324.588,278.276,327.764z"/>
	</g>
</g>
<g>
</g>
<g>
</g>
<g>
</g>
<g>
</g>
<g>
</g>
<g>
</g>
<g>
</g>
<g>
</g>
<g>
</g>
<g>
</g>
<g>
</g>
<g>
</g>
<g>
</g>
<g>
</g>
<g>
</g>
</svg>
