<?xml version='1.0' encoding='iso-8859-1'?>
<svg version="1.1" xmlns="http://www.w3.org/2000/svg" viewBox="0 0 20 20" xmlns:xlink="http://www.w3.org/1999/xlink" enable-background="new 0 0 20 20">
  <g>
    <path d="M18,15H6c-0.494,0-0.913-0.36-0.988-0.848L3.142,2H1C0.448,2,0,1.552,0,1v0c0-0.552,0.448-1,1-1h3   c0.494,0,0.913,0.36,0.988,0.848L5.627,5H19c0.601,0,1.067,0.527,0.992,1.124l-1,8C18.93,14.625,18.504,15,18,15z"/>
    <path d="M16,16c-0.738,0-1.376,0.405-1.723,1H7.723C7.376,16.405,6.738,16,6,16c-1.105,0-2,0.895-2,2c0,1.105,0.895,2,2,2   c0.738,0,1.376-0.405,1.723-1h6.555c0.346,0.595,0.984,1,1.723,1c1.105,0,2-0.895,2-2C18,16.895,17.105,16,16,16z"/>
  </g>
</svg>
