<?xml version="1.0" encoding="iso-8859-1"?>
<!-- Generator: Adobe Illustrator 16.0.0, SVG Export Plug-In . SVG Version: 6.00 Build 0)  -->
<!DOCTYPE svg PUBLIC "-//W3C//DTD SVG 1.1//EN" "http://www.w3.org/Graphics/SVG/1.1/DTD/svg11.dtd">
<svg version="1.1" id="Capa_1" xmlns="http://www.w3.org/2000/svg" xmlns:xlink="http://www.w3.org/1999/xlink" x="0px" y="0px"
	 width="568.787px" height="568.787px" viewBox="0 0 568.787 568.787" style="enable-background:new 0 0 568.787 568.787;"
	 xml:space="preserve">
<g>
	<g>
		<path d="M18.751,334.067h177.37v16.45h-43.152c0,0.006,0.006,0.006,0.006,0.013c4.437,8.097,22.313,15.367,33.329,18.348h91.525
			c2.246-3.25,4.816-6.347,7.625-9.181c3.586-3.616,7.516-6.75,11.543-9.18c5.354-3.225,10.85-5.214,15.898-5.214
			c1.885,0,3.709,0.257,5.424,0.753c1.18,0.343,2.594,0.52,4.203,0.52c11.207,0,27.871-8.433,33.348-11.677l0.189-0.11l0.191-0.098
			c0.359-0.184,0.789-0.429,1.168-0.63c4.535-2.375,10.129-5.839,15.246-9.78c6.303-4.854,11.779-10.349,13.205-15.232
			c0.154-0.532,0.381-1.034,0.582-1.549H44.027c-9.37,0-16.965-6.982-16.965-15.594V60.583c0-8.611,7.595-15.594,16.965-15.594
			h480.744c9.369,0,16.965,6.983,16.965,15.594v231.329c0,8.611-7.596,15.595-16.965,15.595h-53.807
			c8.279,7.136,17.473,16.132,26.395,26.566h52.676c10.355,0,18.752-8.396,18.752-18.752V37.173
			c0-10.355-8.396-18.752-18.752-18.752H18.751C8.396,18.421,0,26.818,0,37.173v278.142C0.006,325.67,8.396,334.067,18.751,334.067z
			"/>
		<path d="M308.803,502.905c10.668,15.852,19.088,21.775,25.924,21.775c10.711,0,17.535-14.541,23.043-28.237
			c9.02-22.442,7.967-37.143,53.004-61.812c23.551-12.9,38.018-16.652,49.861-16.652c10.801,0,19.418,3.121,30.758,5.257
			c6.566,1.236,13.422,2.338,19.492,2.338c15.918,0,26.457-7.57,12.309-40.122c-8.502-19.554-21.09-37.069-33.893-51.378
			c-9.762-10.912-19.615-19.914-27.908-26.566c-5.838-4.688-10.924-8.231-14.578-10.355c-4.645-2.699-10.998-3.929-17.748-3.929
			c-14.277,0-30.307,5.514-35.789,14.284c-0.654,1.046-1.188,2.129-1.523,3.268c-2.32,7.926-11.164,15.582-19.082,21.102
			c-1.115,0.777-2.197,1.506-3.256,2.191c-5.783,3.758-10.404,6.096-10.404,6.096s-11.402,6.769-23.557,10.354
			c-4.375,1.291-8.844,2.185-12.912,2.185c-2.105,0-4.102-0.232-5.918-0.765c-1.182-0.343-2.424-0.508-3.709-0.508
			c-5.766,0-12.424,3.286-18.508,8.274c-3.244,2.656-6.303,5.796-9.002,9.18c-5.354,6.708-9.174,14.346-9.779,21.108
			c4.198,4.828,7.35,10.079,8.721,15.244c2.792,10.539,5.405,31.806,4.18,56.513C293.461,475.702,300.07,489.931,308.803,502.905z
			 M438.596,334.067c0.691-0.71,1.457-1.365,2.375-1.867c4.105-2.252,9.057-1.34,12.172,1.867c0.625,0.643,1.207,1.347,1.658,2.173
			c2.705,4.933,0.895,11.126-4.039,13.831c-4.932,2.705-11.125,0.894-13.83-4.04C434.729,342.01,435.561,337.188,438.596,334.067z
			 M426.662,365.762c4.932-2.705,11.125-0.894,13.83,4.039s0.895,11.126-4.039,13.831c-4.932,2.705-11.125,0.894-13.83-4.039
			S421.723,368.467,426.662,365.762z M309.127,419.582l13.006-7.124l-7.125-13.005c-1.016-1.848-0.336-4.174,1.518-5.184
			l7.656-4.192c1.85-1.016,4.174-0.336,5.184,1.512l7.125,13.005l13.004-7.123c1.85-1.017,4.174-0.337,5.184,1.512l4.199,7.655
			c1.016,1.849,0.336,4.174-1.518,5.185l-13.006,7.123l7.125,13.005c1.016,1.849,0.336,4.174-1.512,5.184l-7.656,4.192
			c-1.85,1.016-4.174,0.337-5.184-1.512l-7.125-13.005l-13.004,7.124c-1.85,1.016-4.174,0.336-5.184-1.512l-4.193-7.656
			C306.6,422.917,307.279,420.591,309.127,419.582z"/>
		<path d="M275.663,400.419c-0.937-1.609-2.014-3.213-3.262-4.773c-0.93-1.169-1.964-2.301-3.035-3.421
			c-8.856-9.204-22.075-16.426-32.161-16.426c-2.729,0-5.227,0.526-7.35,1.688c-3.819,2.094-8.88,2.853-14.199,2.853
			c-13.959,0-29.737-5.215-29.737-5.215s-8.507-2.185-17.675-6.248c-8.25-3.66-17.032-8.844-20.63-15.404
			c-0.306-0.557-0.734-1.053-1.126-1.566c-4.615-6.004-14.988-8.947-25.937-8.947c-11.31,0-23.146,3.097-29.639,9.069
			c-13.317,12.246-46.163,54.542-55.576,102.676c-5.673,29.045,1.67,37.436,13.28,37.436c7.625,0,17.093-3.623,25.912-7.381
			c14.565-6.212,23.733-13.127,42.148-13.127c9.718,0,22.014,1.928,39.04,6.897c49.291,14.394,51.426,28.978,65.068,48.947
			c7.662,11.218,16.567,22.889,26.083,22.889c7.43,0,15.239-7.117,23.121-27.124c7.858-19.944,11.34-41.365,12.387-60.618
			c0.166-2.98,0.257-5.899,0.312-8.764c0.073-3.984,0.03-7.797-0.08-11.487c-0.453-15.729-2.332-28.556-4.192-35.569
			C277.86,404.679,276.893,402.543,275.663,400.419z M141.268,413.658l-2.448,8.378c-0.594,2.025-2.711,3.188-4.737,2.595
			l-14.235-4.155l-4.155,14.235c-0.594,2.025-2.711,3.188-4.737,2.595l-8.378-2.448c-2.026-0.594-3.188-2.711-2.595-4.737
			l4.155-14.234l-14.235-4.155c-2.026-0.594-3.188-2.712-2.595-4.737l2.448-8.385c0.594-2.025,2.711-3.188,4.737-2.595l14.235,4.155
			l4.155-14.234c0.594-2.026,2.711-3.188,4.737-2.596l8.378,2.448c2.025,0.594,3.188,2.711,2.595,4.737l-4.155,14.234l14.235,4.156
			C140.699,409.508,141.861,411.631,141.268,413.658z M222.572,453.701c-1.579,5.397-7.233,8.5-12.638,6.922
			c-5.397-1.579-8.5-7.234-6.921-12.639c1.579-5.403,7.234-8.5,12.631-6.921C221.048,442.642,224.151,448.296,222.572,453.701z
			 M256.422,440.089c-1.579,5.398-7.234,8.501-12.632,6.922s-8.5-7.233-6.922-12.638c1.579-5.398,7.234-8.501,12.632-6.922
			C254.904,429.031,258,434.686,256.422,440.089z"/>
		<path d="M129.45,149.304c4.486,0,8.164,1.2,11.249,3.666c1.756,1.401,3.188,3.133,4.241,5.128
			c2.368,4.462,7.044,6.879,11.457,5.851l7.326-1.75c2.54-0.606,4.657-2.246,5.814-4.498c1.108-2.161,1.2-4.59,0.269-6.854
			c-2.191-5.331-5.085-9.707-8.586-12.999c-7.907-7.479-18.269-11.273-30.79-11.273c-14.296,0-26.028,4.798-34.866,14.266
			c-8.776,9.407-13.231,22.668-13.231,39.407c0,15.875,4.431,28.629,13.177,37.907c8.788,9.327,20.141,14.058,33.739,14.058
			c10.967,0,20.184-2.785,27.417-8.268c5.851-4.443,10.398-10.814,13.513-18.929c0.857-2.234,0.753-4.669-0.306-6.867
			c-1.102-2.289-3.127-4.045-5.557-4.816l-7.173-2.276c-4.602-1.463-9.565,1.132-11.371,5.844c-1.389,3.642-3.213,6.481-5.422,8.421
			c-3.176,2.797-6.873,4.155-11.303,4.155c-6.114,0-10.937-2.179-14.737-6.665c-3.874-4.572-5.838-12.65-5.838-24.015
			c0-10.655,1.989-18.354,5.918-22.877C118.269,151.47,123.189,149.304,129.45,149.304z"/>
		<path d="M206.593,130.625c-4.872,2.032-9.4,5.178-13.458,9.352c-4.021,4.137-7.24,8.88-9.565,14.094
			c-3.091,7.014-4.657,15.735-4.657,25.918c0,16.065,4.553,28.923,13.531,38.201c9.008,9.309,21.23,14.027,36.334,14.027
			c14.933,0,27.068-4.743,36.083-14.101c8.972-9.321,13.525-22.308,13.525-38.593c0-16.414-4.59-29.48-13.629-38.825
			c-9.07-9.376-21.261-14.131-36.237-14.131C220.301,126.581,212.921,127.939,206.593,130.625z M252.174,179.072
			c0,10.331-2.246,18.097-6.677,23.078c-4.394,4.945-9.89,7.344-16.787,7.344c-6.897,0-12.424-2.423-16.885-7.417
			c-4.492-5.019-6.769-12.674-6.769-22.742c0-10.245,2.215-17.919,6.579-22.809c4.333-4.853,9.92-7.215,17.081-7.215
			c7.161,0,12.718,2.326,16.983,7.118C249.99,161.25,252.174,168.87,252.174,179.072z"/>
		<path d="M311.166,130.625c-4.867,2.032-9.395,5.178-13.459,9.352c-4.014,4.131-7.234,8.874-9.564,14.094
			c-3.091,7.014-4.658,15.735-4.658,25.918c0,16.065,4.553,28.917,13.531,38.201c9.008,9.309,21.236,14.027,36.34,14.027
			c14.934,0,27.076-4.743,36.078-14.101c8.973-9.321,13.525-22.308,13.525-38.593c0-16.414-4.59-29.48-13.629-38.825
			c-9.07-9.376-21.262-14.131-36.236-14.131C324.881,126.581,317.494,127.939,311.166,130.625z M356.746,179.072
			c0,10.336-2.246,18.103-6.676,23.078c-4.4,4.945-9.891,7.344-16.787,7.344c-6.898,0-12.424-2.423-16.891-7.417
			c-4.492-5.019-6.77-12.668-6.77-22.742c0-7.564,1.205-13.757,3.586-18.402c1.311-2.559,4.645-6.347,7.002-7.944
			c3.646-2.473,7.926-3.678,13.066-3.678c7.16,0,12.717,2.326,16.982,7.118C354.568,161.244,356.746,168.863,356.746,179.072z"/>
		<path d="M450.145,129.769c-3.887-1.041-11.701-1.549-23.898-1.549h-25.062c-5.061,0-9.18,4.119-9.18,9.18v83.997
			c0,5.061,4.119,9.18,9.18,9.18h7.191c5.061,0,9.18-4.119,9.18-9.18v-24.064c0-1.689,1.371-3.06,3.061-3.06h6.549
			c9.082,0,15.869-0.471,20.807-1.45c3.795-0.826,7.553-2.521,11.17-5.037c3.689-2.564,6.756-6.12,9.131-10.563
			c2.375-4.455,3.574-9.951,3.574-16.34c0-8.311-2.094-15.245-6.211-20.606C461.496,134.916,456.283,131.378,450.145,129.769z
			 M445.701,161.146c0,2.234-0.545,4.119-1.664,5.753c-1.127,1.64-2.645,2.815-4.658,3.604c-1.523,0.594-5.227,1.298-14.254,1.298
			h-5.318c-1.223,0-2.258-1.402-2.258-3.06v-15.068c0-1.842,0.986-3.06,1.635-3.06h4.693c8.445,0,11.959,0.324,13.439,0.605
			c2.49,0.453,4.48,1.53,6.084,3.311C444.949,156.244,445.701,158.411,445.701,161.146z"/>
		<path d="M464.215,215.192v6.206c0,5.061,4.117,9.18,9.18,9.18h6.205c5.061,0,9.18-4.119,9.18-9.18v-6.206
			c0-5.062-4.119-9.18-9.18-9.18h-6.205C468.326,206.012,464.215,210.13,464.215,215.192z"/>
	</g>
</g>
<g>
</g>
<g>
</g>
<g>
</g>
<g>
</g>
<g>
</g>
<g>
</g>
<g>
</g>
<g>
</g>
<g>
</g>
<g>
</g>
<g>
</g>
<g>
</g>
<g>
</g>
<g>
</g>
<g>
</g>
</svg>
