<?xml version="1.0" encoding="utf-8"?>
<!-- Generator: Adobe Illustrator 23.0.0, SVG Export Plug-In . SVG Version: 6.00 Build 0)  -->
<svg version="1.1" id="Capa_1" xmlns="http://www.w3.org/2000/svg" xmlns:xlink="http://www.w3.org/1999/xlink" x="0px" y="0px"
	 viewBox="0 0 568.8 568.8" style="enable-background:new 0 0 568.8 568.8;" xml:space="preserve">
<style type="text/css">
	.st0{display:none;}
</style>
<g>
	<path d="M18.8,334.1h177.4v16.5H153c0,0,0,0,0,0c4.4,8.1,22.3,15.4,33.3,18.3h91.5c2.2-3.3,4.8-6.3,7.6-9.2
		c3.6-3.6,7.5-6.8,11.5-9.2c5.4-3.2,10.9-5.2,15.9-5.2c1.9,0,3.7,0.3,5.4,0.8c1.2,0.3,2.6,0.5,4.2,0.5c11.2,0,27.9-8.4,33.3-11.7
		l0.2-0.1l0.2-0.1c0.4-0.2,0.8-0.4,1.2-0.6c4.5-2.4,10.1-5.8,15.2-9.8c6.3-4.9,11.8-10.3,13.2-15.2c0.2-0.5,0.4-1,0.6-1.5H44
		c-9.4,0-17-7-17-15.6V60.6C27.1,52,34.7,45,44,45h480.7c9.4,0,17,7,17,15.6v231.3c0,8.6-7.6,15.6-17,15.6H471
		c8.3,7.1,17.5,16.1,26.4,26.6H550c10.4,0,18.8-8.4,18.8-18.8V37.2c0-10.4-8.4-18.8-18.8-18.8H18.8C8.4,18.4,0,26.8,0,37.2v278.1
		C0,325.7,8.4,334.1,18.8,334.1z"/>
	<path class="st0" d="M275.7,400.4c-0.9-1.6-2-3.2-3.3-4.8c-0.9-1.2-2-2.3-3-3.4c-8.9-9.2-22.1-16.4-32.2-16.4
		c-2.7,0-5.2,0.5-7.4,1.7c-3.8,2.1-8.9,2.9-14.2,2.9c-14,0-29.7-5.2-29.7-5.2s-8.5-2.2-17.7-6.2c-8.3-3.7-17-8.8-20.6-15.4
		c-0.3-0.6-0.7-1.1-1.1-1.6c-4.6-6-15-8.9-25.9-8.9c-11.3,0-23.1,3.1-29.6,9.1c-13.3,12.2-46.2,54.5-55.6,102.7
		c-5.7,29,1.7,37.4,13.3,37.4c7.6,0,17.1-3.6,25.9-7.4c14.6-6.2,23.7-13.1,42.1-13.1c9.7,0,22,1.9,39,6.9
		c49.3,14.4,51.4,29,65.1,48.9c7.7,11.2,16.6,22.9,26.1,22.9c7.4,0,15.2-7.1,23.1-27.1c7.9-19.9,11.3-41.4,12.4-60.6
		c0.2-3,0.3-5.9,0.3-8.8c0.1-4,0-7.8-0.1-11.5c-0.5-15.7-2.3-28.6-4.2-35.6C277.9,404.7,276.9,402.5,275.7,400.4z M141.3,413.7
		l-2.4,8.4c-0.6,2-2.7,3.2-4.7,2.6l-14.2-4.2l-4.2,14.2c-0.6,2-2.7,3.2-4.7,2.6l-8.4-2.4c-2-0.6-3.2-2.7-2.6-4.7l4.2-14.2l-14.2-4.2
		c-2-0.6-3.2-2.7-2.6-4.7l2.4-8.4c0.6-2,2.7-3.2,4.7-2.6l14.2,4.2l4.2-14.2c0.6-2,2.7-3.2,4.7-2.6l8.4,2.4c2,0.6,3.2,2.7,2.6,4.7
		l-4.2,14.2l14.2,4.2C140.7,409.5,141.9,411.6,141.3,413.7z M222.6,453.7c-1.6,5.4-7.2,8.5-12.6,6.9c-5.4-1.6-8.5-7.2-6.9-12.6
		c1.6-5.4,7.2-8.5,12.6-6.9C221,442.6,224.2,448.3,222.6,453.7z M256.4,440.1c-1.6,5.4-7.2,8.5-12.6,6.9s-8.5-7.2-6.9-12.6
		c1.6-5.4,7.2-8.5,12.6-6.9C254.9,429,258,434.7,256.4,440.1z"/>
	<g>
		<path d="M415.8,274.2l0.1-181.4c0-5.6-4.5-10.1-10.1-10.1H277.8c-4-0.1-7.1-7.4-7.1-10.1v-1.2c0-5.9-4.8-10.8-10.7-10.8h-68.1
			c-5.9,0-10.8,4.8-10.8,10.8v1.2c0,2.8-3.1,10.2-7.1,10.2h0.1c-5.5,0.1-10,4.6-10,10.1l0,52.5h-21.8c0,0-9.6-0.5-6.3,10.9l23,117.9
			c0,5.9,4.1,10.7,10.1,10.7h241.6C416.7,284.9,415.8,274.2,415.8,274.2z M403.3,160.6L403.2,279L380.4,152c-1.9-7-9.8-6.5-9.8-6.5
			h-194v-40.3h226.7L403.3,160.6L403.3,160.6z M318,217.9c1.2-0.9,3-4.5,4.5-7.8c2.8-5.8,5.4-11.3,9-11.4l0.1,0
			c3.6,0,6.2,5.6,9,11.5c1.5,3.2,3.2,6.9,4.4,7.8c1.3,0.9,5.3,1.4,8.8,1.9c6.4,0.8,12.5,1.6,13.6,5.1c1.1,3.5-3.4,7.6-8.2,12.1
			c-2.6,2.4-5.6,5.2-6.1,6.6c-0.4,1.4,0.3,5.4,0.9,8.9c1.2,6.4,2.3,12.5-0.6,14.6c-0.6,0.5-1.4,0.7-2.4,0.7c-3,0.1-7.4-2.4-11.6-4.8
			c-3.1-1.7-6.7-3.7-8.2-3.7c-1.6,0.1-5.1,2-8.2,3.7c-4.2,2.2-8.4,4.6-11.4,4.6c-1,0-1.9-0.2-2.6-0.8c-2.9-2.1-1.7-8.2-0.5-14.6
			c0.7-3.5,1.5-7.4,1-8.9c-0.4-1.4-3.4-4.2-6-6.7c-4.7-4.5-9.1-8.7-8-12.2c1.1-3.4,7.3-4.2,13.7-4.9
			C312.7,219.2,316.8,218.7,318,217.9z"/>
	</g>
	<g>
		<g>
			<path d="M455.3,345.3c10-5.6,20.7-8.6,31.3-9.2c-17-19.6-35.6-33.2-44.8-38.2c-14.6-7.8-47.6,0.2-51.9,14.2
				c-4.3,14-31,27.9-31,27.9s-25.7,15.7-39.9,12.1c-14.2-3.6-38.1,20.5-39,37c-0.9,16.5,4.9,64.9,30.2,101.1
				c25.3,36.3,37.4,13.3,46.1-7.5c8.7-20.8,7.8-34.2,50.4-58.2c5-2.8,9.5-5.1,13.7-7.1C415,390.1,428.4,360.5,455.3,345.3z"/>
			<path d="M493,343.9c-11.4-0.5-23.1,2.1-33.9,8.2c-23.2,13.1-35,38.3-31.1,62c1,6.3,3.1,12.5,6.4,18.3
				c15.7,27.8,52.2,37,81.6,20.5c29.4-16.6,40.4-52.5,24.7-80.4C530.8,355,512.5,344.8,493,343.9z M525.3,391.6
				c0.7,1.2,0.2,2.9-1.1,3.6l-5.5,3.1l-12.3,6.9c-1.3,0.7-1.8,2.4-1.1,3.6l2,3.5l7.5,13.4c0.7,1.2,0.2,2.9-1.1,3.6l-16.7,9.4
				c-1.3,0.7-3,0.3-3.7-0.9l-9.5-16.9c-0.7-1.2-2.3-1.7-3.7-0.9l-17.8,10.1c-1.3,0.7-3,0.3-3.7-0.9l-8.9-15.8
				c-0.7-1.2-0.2-2.9,1.1-3.6l3.4-1.9l14.5-8.2c1.3-0.7,1.8-2.4,1.1-3.6l-9.5-16.9c-0.7-1.2-0.2-2.9,1.1-3.6l16.7-9.4
				c1.3-0.7,3-0.3,3.7,0.9l9.5,16.9c0.7,1.2,2.3,1.7,3.7,0.9l17.3-9.8l0.5-0.3c1.3-0.7,3-0.3,3.7,0.9L525.3,391.6L525.3,391.6z"/>
		</g>
	</g>
</g>
</svg>
