<?xml version="1.0" encoding="iso-8859-1"?>
<!-- Generator: Adobe Illustrator 16.0.0, SVG Export Plug-In . SVG Version: 6.00 Build 0)  -->
<!DOCTYPE svg PUBLIC "-//W3C//DTD SVG 1.1//EN" "http://www.w3.org/Graphics/SVG/1.1/DTD/svg11.dtd">
<svg version="1.1" id="Capa_1" xmlns="http://www.w3.org/2000/svg" xmlns:xlink="http://www.w3.org/1999/xlink" x="0px" y="0px"
	 width="578.942px" height="578.942px" viewBox="0 0 578.942 578.942" style="enable-background:new 0 0 578.942 578.942;"
	 xml:space="preserve">
<g>
	<g>
		<path d="M77.798,90.396c1.199-1.842,2.718-3.488,4.584-4.963v-4.266l5.392-3.642c1.726-1.163,17.553-11.377,41.53-11.377
			c11.23,0,22.437,2.283,33.312,6.775l1.787,0.74l1.469,1.255c1.86,1.585,3.121,3.586,3.984,5.691
			c0.036,0.012,0.073,0.031,0.109,0.043c2.467,0.998,4.211,1.224,5.086,1.273l0.159-0.073h1.658h225.174l0.41-0.275l1.31,0.361
			c0.716-0.024,2.533-0.208,5.189-1.285c0.037-0.012,0.073-0.031,0.11-0.043c0.863-2.105,2.124-4.106,3.984-5.691l1.469-1.255
			l1.787-0.74c10.875-4.498,22.087-6.775,33.311-6.775c23.979,0,39.805,10.208,41.53,11.377l5.398,3.642v4.259
			c1.854,1.457,3.354,3.079,4.511,4.859c0.973,1.457,23.843,35.931,30.856,60.796c2.889,10.239,11.31,43.819,18.917,82.32
			C544.718,174.043,525.14,93.78,520.127,76.02c-6.566-23.287-29.26-57.326-29.26-57.326c-1.187-1.824-3.506-3.366-6.566-4.645
			V9.281c0,0-27.216-18.36-63.323-3.433c0,0-1.145,0.973-1.592,6.034c-2.271,0.508-4.241,1.083-5.851,1.732
			c-7.014,2.84-11.493,2.087-11.493,2.087H176.887c0,0-4.479,0.747-11.493-2.087c-1.604-0.648-3.58-1.224-5.851-1.732
			c-0.447-5.055-1.591-6.034-1.591-6.034C121.844-9.079,94.628,9.281,94.628,9.281v4.761c-3.066,1.279-5.379,2.822-6.566,4.646
			c0,0-22.693,34.039-29.26,57.326c-5.013,17.76-24.597,98.024-30.705,157.382c7.607-38.495,16.028-72.082,18.917-82.32
			C54.029,126.216,76.905,91.742,77.798,90.396z"/>
		<path d="M47.015,240.666c7.014-24.866,29.89-59.34,30.784-60.68c1.199-1.842,2.718-3.488,4.584-4.969v-4.266l5.392-3.642
			c1.726-1.163,17.553-11.377,41.53-11.377c11.23,0,22.437,2.283,33.312,6.775l1.787,0.741l1.469,1.254
			c1.86,1.585,3.121,3.586,3.984,5.692c0.036,0.012,0.073,0.03,0.109,0.042c2.467,0.998,4.211,1.224,5.086,1.273l0.159-0.073h1.658
			h225.174l0.41-0.275l1.31,0.361c0.716-0.024,2.533-0.208,5.189-1.285c0.037-0.012,0.073-0.031,0.11-0.042
			c0.863-2.105,2.124-4.107,3.984-5.692l1.469-1.254l1.787-0.741c10.875-4.498,22.087-6.775,33.311-6.775
			c23.979,0,39.805,10.208,41.53,11.377l5.398,3.642v4.26c1.854,1.456,3.354,3.078,4.511,4.859
			c0.973,1.457,23.843,35.931,30.856,60.796c2.246,7.962,7.84,30.067,13.801,57.602c2.209,10.22,4.468,21.181,6.628,32.46
			c-0.594-11.597-1.965-24.596-3.825-38.177c-7.724-56.249-23.893-122.247-28.378-138.152c-6.567-23.287-29.26-57.326-29.26-57.326
			c-1.188-1.824-3.507-3.366-6.567-4.645v-4.761c0,0-13.758-9.284-34.688-9.284c-8.507,0-18.201,1.53-28.636,5.851
			c0,0-1.145,0.973-1.591,6.034c-2.271,0.508-4.241,1.083-5.852,1.732c-4.596,1.86-8.103,2.179-9.976,2.179
			c-0.985,0-1.518-0.086-1.518-0.086H176.887c0,0-0.532,0.086-1.518,0.086c-1.873,0-5.38-0.318-9.976-2.179
			c-1.604-0.649-3.58-1.224-5.851-1.732c-0.447-5.055-1.591-6.034-1.591-6.034c-10.436-4.314-20.129-5.851-28.636-5.851
			c-20.931,0-34.688,9.284-34.688,9.284v4.761c-3.066,1.279-5.379,2.821-6.566,4.645c0,0-22.693,34.04-29.26,57.326
			c-4.486,15.899-20.655,81.904-28.379,138.152c-1.867,13.581-3.231,26.58-3.825,38.177c2.161-11.285,4.413-22.24,6.628-32.46
			C39.175,270.733,44.769,248.628,47.015,240.666z"/>
		<path d="M501.07,264.032c0.857,1.291,18.868,28.452,27.858,51.922c1.163,3.035,2.197,6.022,2.999,8.874
			c2.13,7.552,7.276,27.827,12.883,53.391c0.594,2.718,1.193,5.472,1.799,8.299c0.515,2.399,1.028,4.841,1.542,7.313
			c1.243,5.955,2.473,12.105,3.685,18.348c-0.495-6.45-1.188-13.243-2.038-20.251c-0.336-2.772-0.691-5.575-1.077-8.409
			c-0.44-3.249-0.912-6.536-1.407-9.834c-3.152-21.12-7.313-43.146-11.487-63.092c-6.536-31.267-13.078-57.381-15.68-66.604
			c-6.566-23.287-29.26-57.326-29.26-57.326c-1.188-1.824-3.507-3.366-6.566-4.645v-4.761c0,0-13.758-9.284-34.688-9.284
			c-8.507,0-18.2,1.53-28.635,5.851c0,0-1.145,0.973-1.592,6.034c-2.271,0.508-4.241,1.083-5.851,1.732
			c-4.596,1.861-8.103,2.179-9.976,2.179c-0.985,0-1.518-0.092-1.518-0.092H176.887c0,0-0.532,0.092-1.518,0.092
			c-1.873,0-5.38-0.318-9.976-2.179c-1.604-0.648-3.58-1.224-5.851-1.732c-0.447-5.055-1.591-6.034-1.591-6.034
			c-10.436-4.314-20.129-5.851-28.636-5.851c-20.931,0-34.688,9.284-34.688,9.284v4.761c-3.066,1.279-5.379,2.821-6.566,4.645
			c0,0-22.693,34.04-29.26,57.326c-2.602,9.223-9.138,35.337-15.68,66.604c-4.174,19.945-8.335,41.971-11.487,63.091
			c-0.49,3.306-0.967,6.592-1.408,9.842c-0.379,2.833-0.741,5.63-1.077,8.402c-0.851,7.008-1.542,13.801-2.038,20.251
			c1.212-6.248,2.442-12.393,3.685-18.348c0.514-2.473,1.028-4.908,1.542-7.313c0.606-2.827,1.2-5.581,1.799-8.299
			c5.606-25.563,10.753-45.839,12.883-53.391c0.802-2.852,1.836-5.832,2.999-8.874c8.99-23.464,26.989-50.619,27.784-51.812
			c1.2-1.842,2.718-3.488,4.584-4.969v-4.266l5.392-3.642c1.727-1.163,17.553-11.377,41.53-11.377c8.158,0,16.298,1.236,24.31,3.623
			c3.017,0.899,6.021,1.928,9.002,3.158l1.787,0.741l1.469,1.254c1.86,1.585,3.121,3.586,3.984,5.692
			c0.036,0.012,0.073,0.03,0.11,0.042c2.466,0.998,4.21,1.224,5.085,1.273l0.159-0.073h1.659h225.173l0.41-0.275l1.31,0.361
			c0.716-0.024,2.534-0.208,5.19-1.285c0.036-0.012,0.073-0.03,0.109-0.042c0.863-2.105,2.124-4.107,3.984-5.692l1.469-1.254
			l1.787-0.741c2.975-1.23,5.985-2.258,9.003-3.158c8.017-2.381,16.156-3.623,24.309-3.623c23.978,0,39.804,10.208,41.53,11.377
			l5.397,3.642v4.259C498.408,260.629,499.908,262.251,501.07,264.032z"/>
		<path d="M86.489,578.942c17.901,0,34.859-7.447,42.772-23.274c19.707-39.412,32.847-87.186,32.847-87.186s7.76-5.673,9.553-5.673
			c0,0,14.046,11.665,33.765,11.665c10.71,0,23.091-3.439,35.802-14.052h96.482c12.711,10.612,25.098,14.052,35.802,14.052
			c19.725,0,33.764-11.665,33.764-11.665c1.793,0,9.554,5.673,9.554,5.673s13.14,47.773,32.846,87.186
			c7.919,15.827,24.884,23.274,42.779,23.274c26.671,0,55.41-16.542,59.339-46.566c1.689-12.896,0.839-31.146-1.45-51.5
			c-0.318-2.827-0.667-5.704-1.034-8.604c-0.44-3.422-0.906-6.879-1.407-10.374c-2.779-19.327-6.463-39.584-10.288-58.445
			c-0.459-2.265-0.918-4.517-1.383-6.745c-0.478-2.301-0.955-4.577-1.433-6.823c-6.188-29.095-12.191-52.987-14.657-61.732
			c-0.581-2.057-1.322-4.223-2.13-6.414c-8.311-22.644-27.13-50.912-27.13-50.912c-1.188-1.824-3.507-3.366-6.566-4.645v-4.761
			c0,0-13.758-9.284-34.688-9.284c-6.188,0-13.005,0.845-20.275,2.95c-2.729,0.79-5.515,1.726-8.36,2.901
			c0,0-1.145,0.973-1.591,6.035c-2.271,0.508-4.241,1.083-5.851,1.732c-4.597,1.86-8.104,2.179-9.976,2.179
			c-0.985,0-1.518-0.092-1.518-0.092H176.887c0,0-0.532,0.092-1.518,0.092c-1.873,0-5.38-0.318-9.976-2.179
			c-1.604-0.649-3.58-1.224-5.851-1.732c-0.447-5.055-1.591-6.035-1.591-6.035c-2.853-1.181-5.631-2.111-8.36-2.901
			c-7.265-2.099-14.088-2.95-20.275-2.95c-20.931,0-34.688,9.284-34.688,9.284v4.761c-3.066,1.279-5.379,2.821-6.566,4.645
			c0,0-18.819,28.269-27.13,50.912c-0.809,2.197-1.549,4.357-2.13,6.414c-2.467,8.745-8.471,32.638-14.658,61.732
			c-0.478,2.246-0.955,4.522-1.432,6.823c-0.459,2.222-0.924,4.475-1.383,6.738c-3.819,18.862-7.509,39.119-10.288,58.446
			c-0.502,3.494-0.973,6.958-1.408,10.38c-0.373,2.9-0.722,5.777-1.034,8.604c-2.289,20.361-3.14,38.604-1.451,51.5
			C31.078,562.395,59.818,578.942,86.489,578.942z M309.11,388.501v-5.429c0-0.208,0.056-0.465,0.067-0.691
			c0.11-1.879,0.661-4.113,1.463-6.12c0.447-1.126,0.942-2.191,1.499-3.005l43.098-63.085l0.942-1.377
			c0.985-1.444,2.711-2.669,4.554-3.477c1.291-0.569,2.638-0.967,3.855-0.967h7.84c1.812,0,3.335,0.955,4.308,2.325
			c0.625,0.876,1.065,1.892,1.065,3.048v3.061v59.456c0,2.968,2.405,5.379,5.379,5.379h3.581c2.968,0,5.379,2.405,5.379,5.38v3.861
			v4.841c0,0.618-0.159,1.193-0.349,1.744c-0.729,2.105-2.675,3.636-5.024,3.636h-3.58c-2.944,0-5.318,2.368-5.361,5.294
			c0,0.03-0.019,0.055-0.019,0.079v12.485c0,2.968-2.405,5.379-5.379,5.379h-10.674c-2.968,0-5.379-2.405-5.379-5.379v-12.485
			c0-0.955-0.312-1.806-0.753-2.576c-0.925-1.641-2.613-2.797-4.627-2.797h-3.061h-33.451c-2.969,0-5.38-2.405-5.38-5.38v-3.2
			H309.11z M220.413,415.906l14.554-20.79l8.923-12.742l0.526-0.752c1.028-1.469,1.353-3.471,1.132-5.367
			c-0.146-1.249-0.483-2.461-1.169-3.422l-22.668-31.812c-1.726-2.417-0.716-4.382,2.258-4.382h16.268
			c2.968,0,6.683,2.025,8.292,4.522l8.99,13.96c1.61,2.497,4.266,2.527,5.931,0.073l9.56-14.101c1.664-2.46,5.429-4.449,8.396-4.449
			h15.239c2.968,0,3.978,1.959,2.246,4.376l-22.1,30.882c-0.863,1.199-1.291,2.778-1.304,4.357c-0.013,1.597,0.41,3.194,1.267,4.412
			l1.2,1.708l4.302,6.12l19.272,27.417c1.707,2.43,0.686,4.4-2.283,4.4h-16.426c-2.969,0-6.702-2.014-8.33-4.498l-11.113-16.928
			c-1.628-2.485-4.284-2.491-5.925-0.013l-11.236,16.952c-1.64,2.479-5.379,4.486-8.348,4.486h-15.165
			C219.734,420.312,218.711,418.342,220.413,415.906z"/>
		<path d="M335.212,377.613h4.266h11.529c2.969,0,5.38-2.405,5.38-5.38v-28.715c0-2.968-1.347-3.378-2.999-0.918l-20.545,30.545
			c-0.813,1.212-0.954,2.301-0.551,3.108C332.697,377.093,333.701,377.613,335.212,377.613z"/>
	</g>
</g>
<g>
</g>
<g>
</g>
<g>
</g>
<g>
</g>
<g>
</g>
<g>
</g>
<g>
</g>
<g>
</g>
<g>
</g>
<g>
</g>
<g>
</g>
<g>
</g>
<g>
</g>
<g>
</g>
<g>
</g>
</svg>
