<?xml version="1.0" encoding="iso-8859-1"?>
<!-- Generator: Adobe Illustrator 16.0.0, SVG Export Plug-In . SVG Version: 6.00 Build 0)  -->
<!DOCTYPE svg PUBLIC "-//W3C//DTD SVG 1.1//EN" "http://www.w3.org/Graphics/SVG/1.1/DTD/svg11.dtd">
<svg version="1.1" id="Capa_1" xmlns="http://www.w3.org/2000/svg" xmlns:xlink="http://www.w3.org/1999/xlink" x="0px" y="0px"
	 width="354.006px" height="354.006px" viewBox="0 0 354.006 354.006" style="enable-background:new 0 0 354.006 354.006;"
	 xml:space="preserve">
<g>
	<g>
		<path d="M353.039,196.263l-75.631-11.5c-1.58,20.552-9.316,39.37-21.414,54.64l56.23,51.879
			C334.428,265.052,349.141,232.285,353.039,196.263z"/>
		<path d="M177.101,354.006c44.224,0,84.622-16.255,115.644-43.066l-45.875-61.488c-18.115,17.454-42.688,28.25-69.769,28.25
			c-55.527,0-100.699-45.172-100.699-100.705c0-6.64,0.686-13.127,1.916-19.413l-76.549-4.633
			c-1.071,7.871-1.671,15.888-1.671,24.052C0.098,274.758,79.346,354.006,177.101,354.006z"/>
		<path d="M177.101,88.538c-48.776,0-88.458,39.682-88.458,88.465c0,48.782,39.682,88.465,88.458,88.465
			s88.458-39.688,88.458-88.465S225.871,88.538,177.101,88.538z M177.101,222.848c-25.318,0-45.839-20.526-45.839-45.845
			s20.526-45.845,45.839-45.845c25.317,0,45.845,20.526,45.845,45.845S202.418,222.848,177.101,222.848z"/>
		<path d="M85.246,135.938l-69.695-31.242c-3.115,6.952-5.808,14.131-8.017,21.524l74.242,18.574
			C82.797,141.776,83.948,138.826,85.246,135.938z"/>
		<path d="M177.101,76.298c53.771,0,97.694,42.387,100.435,95.484l76.373-2.577C349.826,75.068,272.242,0,177.101,0
			c-62.314,0-117.063,32.228-148.6,80.895l62.858,43.568C109.083,95.631,140.833,76.298,177.101,76.298z"/>
	</g>
</g>
<g>
</g>
<g>
</g>
<g>
</g>
<g>
</g>
<g>
</g>
<g>
</g>
<g>
</g>
<g>
</g>
<g>
</g>
<g>
</g>
<g>
</g>
<g>
</g>
<g>
</g>
<g>
</g>
<g>
</g>
</svg>
