<?xml version="1.0" encoding="iso-8859-1"?>
<!-- Generator: Adobe Illustrator 16.0.0, SVG Export Plug-In . SVG Version: 6.00 Build 0)  -->
<!DOCTYPE svg PUBLIC "-//W3C//DTD SVG 1.1//EN" "http://www.w3.org/Graphics/SVG/1.1/DTD/svg11.dtd">
<svg version="1.1" id="Capa_1" xmlns="http://www.w3.org/2000/svg" xmlns:xlink="http://www.w3.org/1999/xlink" x="0px" y="0px"
	 width="574.582px" height="574.582px" viewBox="0 0 574.582 574.582" style="enable-background:new 0 0 574.582 574.582;"
	 xml:space="preserve">
<g>
	<g>
		<path d="M44.581,458.144h24.352c-4.621,92.173,91.928,110.398,167.027,107.491c3.103,5.331,8.813,8.947,15.422,8.947h76.42
			c9.891,0,17.908-8.017,17.908-17.907v-15.777c0-9.89-8.018-17.907-17.908-17.907h-76.42c-8.715,0-15.961,6.23-17.564,14.48
			c-60.777,3.151-139.383-5.937-136.262-79.321h32.957c8.409,0,15.22-6.817,15.22-15.227V264.574c0-8.409-6.818-15.227-15.22-15.227
			H84.392C90.408,139.585,181.369,48.954,288.39,48.954c107.02,0,197.982,90.625,203.998,200.393h-48.324
			c-8.408,0-15.221,6.818-15.221,15.227v178.349c0,8.409,6.812,15.227,15.221,15.227h85.938c8.408,0,15.227-6.817,15.227-15.227
			V264.574c0-3.776-1.426-7.185-3.703-9.847C538.202,116.023,423.685,0,288.39,0C153.798,0,39.765,114.83,35.309,252.579
			c-3.599,2.778-5.955,7.093-5.955,11.995v178.349C29.354,451.325,36.172,458.144,44.581,458.144z"/>
	</g>
</g>
<g>
</g>
<g>
</g>
<g>
</g>
<g>
</g>
<g>
</g>
<g>
</g>
<g>
</g>
<g>
</g>
<g>
</g>
<g>
</g>
<g>
</g>
<g>
</g>
<g>
</g>
<g>
</g>
<g>
</g>
</svg>
