<?xml version="1.0" encoding="utf-8"?>
<!-- Generator: Adobe Illustrator 23.0.0, SVG Export Plug-In . SVG Version: 6.00 Build 0)  -->
<svg version="1.1" id="Capa_1" xmlns="http://www.w3.org/2000/svg" xmlns:xlink="http://www.w3.org/1999/xlink" x="0px"
     y="0px"
     viewBox="0 0 460.3 460.3" style="enable-background:new 0 0 460.3 460.3;" xml:space="preserve">
<g>
	<g>
		<path d="M225.5,126.9L78.2,247.7c0,0.2,0,0.4-0.1,0.8c-0.1,0.3-0.1,0.6-0.1,0.8v122.3c0,4.4,1.6,8.2,4.9,11.5
			c3.2,3.2,7.1,4.8,11.5,4.8h98.4V290h65.6v97.9h98.4c4.4,0,8.3-1.6,11.5-4.9c3.2-3.2,4.9-7.1,4.9-11.5V249.2c0-0.7-0.1-1.2-0.3-1.5
			L225.5,126.9z"/>
    <path d="M429.2,220.2l-56.1-46.4v-104c0-2.4-0.8-4.3-2.3-5.9c-1.5-1.5-3.5-2.3-5.9-2.3h-49.2c-2.4,0-4.4,0.8-5.9,2.3
			c-1.5,1.5-2.3,3.5-2.3,5.9v49.7l-62.5-52c-5.5-4.4-11.9-6.6-19.5-6.6c-7.5,0-14,2.2-19.5,6.6L21.8,220.2c-1.7,1.4-2.6,3.2-2.8,5.5
			c-0.2,2.3,0.4,4.3,1.8,6l15.9,18.9c1.4,1.5,3.2,2.5,5.4,2.8c2.1,0.2,4.1-0.4,6.2-1.8l177.3-147.1l177.3,147.1
			c1.4,1.2,3.2,1.8,5.4,1.8h0.8c2.2-0.3,4-1.3,5.4-2.8l15.9-18.9c1.4-1.7,2-3.7,1.8-6C431.8,223.4,430.9,221.5,429.2,220.2z"/>
	</g>
</g>
</svg>
