<?xml version="1.0" encoding="utf-8"?>
<!-- Generator: Adobe Illustrator 23.0.0, SVG Export Plug-In . SVG Version: 6.00 Build 0)  -->
<svg version="1.1" id="Capa_1" xmlns="http://www.w3.org/2000/svg" xmlns:xlink="http://www.w3.org/1999/xlink" x="0px" y="0px"
	 viewBox="0 0 580.1 580.1" style="enable-background:new 0 0 580.1 580.1;" xml:space="preserve">
<g>
	<path d="M400.4,289.2c-23.5-9.1-48.4-15.1-74.2-17.8l-1.5-26.9c18.3-11.2,29.2-31.8,29.2-55.7c0-5.6,3.1-26.7,3.1-32.3
		c0-35.7-27.5-64.6-61.5-64.6S234,120.8,234,156.5c0,5.6,3.1,26.7,3.1,32.3c0,23.9,10.9,44.5,29.2,55.7l-1.5,26.9
		c-25.8,2.7-50.7,8.7-74.2,17.8c-20.3,7.8-26.7,34.3-12.9,51.7c28.1,35.5,70.4,58,117.8,58s89.6-22.6,117.8-58
		C427.1,323.5,420.7,297,400.4,289.2z"/>
</g>
<g>
	<path d="M230,360.2c-23.5-9.1-48.4-15.1-74.2-17.8l-1.5-26.9c18.3-11.2,29.2-31.8,29.2-55.7c0-5.6,3.1-26.7,3.1-32.3
		c0-35.7-27.5-64.6-61.5-64.6s-61.5,28.9-61.5,64.6c0,5.6,3.1,26.7,3.1,32.3c0,23.9,10.9,44.5,29.2,55.7l-1.5,26.9
		c-25.8,2.7-50.7,8.8-74.2,17.8C0,368-6.5,394.5,7.4,411.9c28.1,35.5,70.4,58,117.8,58s89.6-22.6,117.8-58
		C256.8,394.5,250.3,368,230,360.2z"/>
</g>
<g>
	<path d="M559.9,360.2c-23.5-9.1-48.4-15.1-74.2-17.8l-1.5-26.9c18.3-11.2,29.2-31.8,29.2-55.7c0-5.6,3.1-26.7,3.1-32.3
		c0-35.7-27.5-64.6-61.5-64.6s-61.5,28.9-61.5,64.6c0,5.6,3.1,26.7,3.1,32.3c0,23.9,10.9,44.5,29.2,55.7l-1.5,26.9
		c-25.8,2.7-50.7,8.8-74.2,17.8c-20.3,7.8-26.7,34.3-12.9,51.7c28.1,35.5,70.4,58,117.8,58s89.6-22.6,117.8-58
		C586.6,394.5,580.1,368,559.9,360.2z"/>
</g>
</svg>
