<?xml version='1.0' encoding='iso-8859-1'?>
<svg version="1.1" xmlns="http://www.w3.org/2000/svg" viewBox="0 0 20 20" xmlns:xlink="http://www.w3.org/1999/xlink" enable-background="new 0 0 20 20">
  <g>
    <path d="m17.185,12.853c-1.61-0.59-3.314-0.981-5.08-1.16l-.105-1.752c1.253-0.729 2-2.072 2-3.626 0-0.366 0.21-1.739 0.21-2.105 0-2.325-1.885-4.21-4.21-4.21s-4.21,1.885-4.21,4.21c0,0.366 0.21,1.74 0.21,2.105 0,1.555 0.747,2.897 2,3.626l-.105,1.751c-1.767,0.179-3.47,0.57-5.08,1.16-1.388,0.508-1.829,2.234-0.881,3.368 1.927,2.31 4.823,3.78 8.066,3.78s6.139-1.47 8.067-3.779c0.947-1.134 0.506-2.86-0.882-3.368z"/>
  </g>
</svg>
